<svg width="1038" height="320" xmlns="http://www.w3.org/2000/svg" preserveAspectRatio="xMidYMid meet" version="1.0">

 <g>
  <title>Layer 1</title>
  <g id="svg_1" fill="#000000" transform="translate(0 320) scale(0.1 -0.1)">
   <path id="svg_2" d="m-2114,3030c-712,-90 -1236,-679 -1236,-1390c0,-669 459,-1230 1123,-1372c145,-31 399,-31 544,0c562,120 977,533 1100,1094c25,118 25,438 0,556c-123,560 -544,979 -1099,1092c-115,24 -326,33 -432,20zm-175,-834c103,-24 174,-78 221,-170c34,-64 37,-202 7,-281c-33,-89 -147,-198 -309,-295c-139,-83 -202,-135 -231,-192c-10,-20 -19,-40 -19,-43c0,-3 128,-5 285,-5l285,0l0,-70l0,-70l-370,0l-370,0l0,33c0,48 26,139 56,199c39,78 113,144 294,264c140,93 171,117 204,166c33,49 39,65 43,125c4,57 1,75 -19,113c-57,110 -212,144 -319,69c-40,-28 -80,-112 -86,-180l-6,-59l-70,0l-70,0l5,73c15,239 223,381 469,323zm1019,-351l0,-365l75,0l75,0l0,-70l0,-70l-75,0l-75,0l0,-135l0,-135l-70,0l-70,0l0,135l0,135l-245,0l-245,0l0,76l0,77l248,358l247,358l68,1l67,0l0,-365z"/>
   <path id="svg_3" d="m-1582,1733l-167,-248l166,-3c91,-1 168,-1 170,1c2,2 2,115 1,251l-3,247l-167,-248z"/>
   <path id="svg_4" d="m430,1671l0,-611l105,0l105,0l0,234l0,235l228,3c208,3 232,5 284,26c76,30 150,99 185,170c26,53 28,66 28,177c0,111 -2,124 -28,177c-30,62 -75,106 -140,139c-89,46 -127,51 -454,56l-313,5l0,-611zm602,409c44,-13 93,-52 113,-91c9,-16 15,-55 15,-91c0,-86 -28,-134 -95,-168c-46,-23 -62,-25 -237,-28l-188,-4l0,196l0,196l178,0c97,0 194,-5 214,-10z"/>
   <path id="svg_5" d="m2120,2185l0,-95l100,0l100,0l0,95l0,95l-100,0l-100,0l0,-95z"/>
   <path id="svg_6" d="m5284,2255c-34,-7 -77,-21 -95,-30c-59,-31 -135,-112 -163,-174c-28,-63 -53,-218 -38,-233c5,-5 49,-8 98,-6l89,3l8,70c8,79 40,150 78,178c38,28 110,39 170,26c133,-29 182,-194 95,-325c-37,-55 -69,-82 -241,-199c-122,-84 -239,-194 -270,-255c-29,-57 -53,-141 -57,-200l-3,-45l405,0l405,0l3,88l3,87l-291,0l-291,0l12,23c24,44 127,134 259,224c172,118 233,175 273,261c29,61 32,76 32,162c0,88 -3,101 -33,162c-50,101 -126,157 -250,184c-81,17 -118,17 -198,-1z"/>
   <path id="svg_7" d="m6093,1898l-253,-361l0,-94l0,-93l249,0l248,0l7,-52c3,-29 6,-95 6,-146l0,-93l93,3l92,3l3,143l3,142l74,0l75,0l0,80l0,80l-75,0l-75,0l0,375l0,375l-97,-1l-98,0l-252,-361zm254,-385c-2,-2 -79,-2 -171,-1l-167,3l168,248l168,249l3,-248c1,-136 1,-249 -1,-251z"/>
   <path id="svg_8" d="m4380,2075l0,-135l-75,0l-75,0l0,-70l0,-70l74,0l75,0l3,-307c3,-305 3,-308 27,-350c36,-63 73,-77 219,-81l122,-4l0,81l0,81l-69,0c-104,0 -101,-11 -101,312l0,268l85,0l85,0l0,70l0,70l-85,0l-84,0l-3,133l-3,132l-97,3l-98,3l0,-136z"/>
   <path id="svg_9" d="m3598,1952c-120,-33 -196,-109 -223,-227l-13,-55l91,0l92,0l20,52c29,76 58,92 165,96c140,6 195,-33 188,-136c-3,-43 -6,-49 -38,-64c-19,-9 -102,-26 -183,-38c-81,-11 -173,-30 -203,-41c-71,-27 -138,-90 -153,-144c-17,-61 -13,-154 8,-200c25,-55 100,-119 158,-136c113,-33 300,-5 383,56l33,25l18,-30c28,-46 65,-64 128,-65c31,0 73,4 94,8l37,8l0,69l0,70l-40,0c-33,0 -40,4 -45,23c-3,12 -6,144 -7,292l-3,270l-28,47c-52,89 -142,128 -307,134c-80,3 -121,0 -172,-14zm322,-524c-1,-135 -24,-182 -109,-220c-58,-27 -173,-29 -218,-5c-87,46 -83,181 6,223c19,9 87,24 151,34c65,10 126,23 136,29c32,18 34,13 34,-61z"/>
   <path id="svg_10" d="m1864,1949c-53,-15 -127,-72 -161,-123l-33,-48l0,81l0,81l-90,0l-90,0l0,-440l0,-440l94,0l94,0l4,258c4,209 8,265 22,301c40,106 111,154 227,154l69,0l0,93l0,94l-52,-1c-29,0 -67,-5 -84,-10z"/>
   <path id="svg_11" d="m2120,1500l0,-441l98,3l97,3l3,438l2,437l-100,0l-100,0l0,-440z"/>
   <path id="svg_12" d="m2482,1853c17,-49 89,-245 159,-438l127,-350l105,-3c76,-2 107,1 114,10c5,7 76,200 158,428c81,228 150,421 153,428c3,10 -18,12 -99,10l-103,-3l-101,-315c-55,-173 -103,-322 -106,-330c-3,-8 -55,134 -115,317l-109,332l-107,1l-108,0l32,-87z"/>
  </g>
 </g>
</svg>